<svg width="239" height="32" viewBox="0 0 239 32" fill="none" xmlns="http://www.w3.org/2000/svg">
<path d="M50.7071 25.6114H43V6.36269H50.6818C56.5696 6.36269 59.2481 9.57513 59.2481 15.7668V16.0777C59.2481 22.2953 56.6707 25.6114 50.7071 25.6114ZM46.3861 9.26425V22.7098H50.2017C53.9163 22.7098 55.8368 20.8964 55.8368 16.285V15.5596C55.8368 11.0518 53.9163 9.26425 50.2017 9.26425H46.3861Z" fill="black"/>
<path d="M66.0536 25.6114H62.6676V6.36269H66.0536V25.6114Z" fill="black"/>
<path d="M73.8251 25.6114H70.5148V6.36269H74.4316L83.0484 19.7824L83.7054 20.8187V6.36269H87.0156V25.6114H83.0989L74.4821 12.1917L73.8251 11.1295V25.6114Z" fill="black"/>
<path d="M107.815 25.6114H104.176L102.685 21.1554H94.6495L93.1586 25.6114H89.5199L96.4436 6.36269H100.866L107.815 25.6114ZM98.1872 10.5337L95.5592 18.4352H101.775L99.1474 10.5337L98.6926 9.05699H98.6421L98.1872 10.5337Z" fill="black"/>
<path d="M113.629 25.6114H110.319V6.36269H114.766L119.795 17.9171L120.25 19.1865H120.275L120.73 17.9171L125.758 6.36269H130.18V25.6114H126.87V12.6839L126.921 10.9741H126.895L126.365 12.3212L121.69 22.8394H118.809L114.134 12.3212L113.629 10.9741H113.604L113.629 12.6839V25.6114Z" fill="black"/>
<path d="M138.036 25.6114H134.65V6.36269H138.036V25.6114Z" fill="black"/>
<path d="M149.952 26C144.469 26 141.462 22.6321 141.462 16.1554V15.8187C141.462 9.36788 144.469 6 149.977 6C155.435 6 158.114 9.31606 158.291 13.3575V13.4611H154.955V13.3834C154.753 11.0259 153.186 8.97927 150.003 8.97927C146.718 8.97927 144.898 11.2591 144.898 15.6891V16.285C144.898 20.715 146.718 23.0207 149.977 23.0207C152.909 23.0207 154.829 21.4404 154.981 18.6166V18.487H158.341V18.5907C158.165 22.6839 155.511 26 149.952 26Z" fill="black"/>
<path d="M172.979 25.6114H169.593V6.36269H182.783V9.16062H172.979V14.7824H181.823V17.6839H172.979V25.6114Z" fill="black"/>
<path d="M192.672 26C187.062 26 184.005 22.6062 184.005 16.1554V15.7927C184.005 9.36788 187.062 6 192.672 6C198.282 6 201.339 9.36788 201.339 15.7927V16.1554C201.339 22.6062 198.282 26 192.672 26ZM192.672 23.0207C196.058 23.0207 197.928 20.715 197.928 16.2591V15.6891C197.928 11.2591 196.058 8.97927 192.672 8.97927C189.286 8.97927 187.441 11.2591 187.441 15.6891V16.2591C187.441 20.715 189.286 23.0207 192.672 23.0207Z" fill="black"/>
<path d="M208.068 25.6114H204.758V6.36269H208.674L217.291 19.7824L217.948 20.8187V6.36269H221.258V25.6114H217.342L208.725 12.1917L208.068 11.1295V25.6114Z" fill="black"/>
<path d="M233.011 25.6114H229.6V9.26425H223.611V6.36269H239V9.26425H233.011V25.6114Z" fill="black"/>
<path d="M26.0117 0C26.7455 0 27.1127 0.000117567 27.458 0.0830078C27.764 0.156506 28.0569 0.277954 28.3252 0.442383C28.6278 0.627892 28.8876 0.887613 29.4062 1.40625L30.5938 2.59375C31.1124 3.11239 31.3721 3.37222 31.5576 3.6748C31.722 3.94313 31.8435 4.236 31.917 4.54199C31.9999 4.88725 32 5.25451 32 5.98828V26.0117C32 26.7455 31.9999 27.1127 31.917 27.458C31.8435 27.764 31.722 28.0569 31.5576 28.3252C31.3721 28.6278 31.1124 28.8876 30.5938 29.4062L29.4062 30.5938C28.8876 31.1124 28.6278 31.3721 28.3252 31.5576C28.0569 31.722 27.764 31.8435 27.458 31.917C27.1127 31.9999 26.7455 32 26.0117 32H5.98828C5.25451 32 4.88725 31.9999 4.54199 31.917C4.236 31.8435 3.94313 31.722 3.6748 31.5576C3.37222 31.3721 3.11239 31.1124 2.59375 30.5938L1.40625 29.4062C0.887614 28.8876 0.627892 28.6278 0.442383 28.3252C0.277954 28.0569 0.156506 27.764 0.0830078 27.458C0.000117567 27.1127 0 26.7455 0 26.0117V5.98828C0 5.25451 0.000117567 4.88725 0.0830078 4.54199C0.156506 4.236 0.277954 3.94313 0.442383 3.6748C0.627892 3.37222 0.887613 3.11239 1.40625 2.59375L2.59375 1.40625C3.11239 0.887614 3.37222 0.627892 3.6748 0.442383C3.94313 0.277954 4.236 0.156506 4.54199 0.0830078C4.88725 0.000117567 5.25451 0 5.98828 0H26.0117ZM12.9932 7C12.1368 7 11.7081 6.99976 11.3262 7.12598C10.9883 7.23766 10.6787 7.42094 10.417 7.66211C10.1212 7.93476 9.91292 8.30886 9.49707 9.05762L6.71875 14.0596C6.32513 14.7683 6.12794 15.1227 6.05078 15.498C5.98248 15.8303 5.98339 16.1736 6.05176 16.5059C6.12908 16.8811 6.32595 17.2357 6.71973 17.9443L9.49805 22.9434C9.91414 23.6922 10.1221 24.0672 10.418 24.3398C10.6796 24.5808 10.9895 24.7634 11.3271 24.875C11.7091 25.0011 12.1378 25.0011 12.9941 25.001L19.2861 25C20.1421 24.9999 20.5704 25.0001 20.9521 24.874C21.29 24.7624 21.6006 24.58 21.8623 24.3389C22.1581 24.0663 22.3663 23.6919 22.7822 22.9434L25.5596 17.9443C25.9534 17.2357 26.1502 16.8811 26.2275 16.5059C26.2959 16.1736 26.2958 15.8303 26.2275 15.498C26.1503 15.1227 25.9533 14.7684 25.5596 14.0596L22.7822 9.05762C22.3664 8.30904 22.1579 7.93475 21.8623 7.66211C21.6006 7.42089 21.2901 7.23765 20.9521 7.12598C20.5702 6.99975 20.1417 7 19.2852 7H12.9932Z" fill="black"/>
</svg>
