<svg width="24" height="24" viewBox="0 0 24 24" fill="none" xmlns="http://www.w3.org/2000/svg">
<path d="M5 0C5.55228 7.74162e-07 6 0.447716 6 1C6 1.55228 5.55228 2 5 2H4V22H5C5.55228 22 6 22.4477 6 23C6 23.5523 5.55228 24 5 24H1C0.447715 24 1.70775e-07 23.5523 0 23C4.82823e-08 22.4477 0.447715 22 1 22H2V2H1C0.447715 2 1.70775e-07 1.55228 0 1C4.82823e-08 0.447715 0.447715 -4.82823e-08 1 0H5Z" fill="black"/>
<path d="M18 19C18 19.5523 17.5523 20 17 20C16.4477 20 16 19.5523 16 19V6H11C10.4477 6 10 5.55228 10 5C10 4.44772 10.4477 4 11 4H23C23.5523 4 24 4.44772 24 5C24 5.55228 23.5523 6 23 6H18V19Z" fill="black"/>
</svg>
