<svg width="24" height="24" viewBox="0 0 24 24" fill="none" xmlns="http://www.w3.org/2000/svg">
<path d="M23 18C23.5523 18 24 18.4477 24 19V23C24 23.5523 23.5523 24 23 24C22.4477 24 22 23.5523 22 23V22H2V23C2 23.5523 1.55228 24 1 24C0.447715 24 -9.10697e-09 23.5523 0 23V19C4.13198e-08 18.4477 0.447715 18 1 18C1.55228 18 2 18.4477 2 19V20H22V19C22 18.4477 22.4477 18 23 18Z" fill="black"/>
<path d="M18 0C18.5523 1.93276e-07 19 0.447715 19 1C19 1.55228 18.5523 2 18 2H13V15C13 15.5523 12.5523 16 12 16C11.4477 16 11 15.5523 11 15V2H6C5.44772 2 5 1.55228 5 1C5 0.447715 5.44772 2.41596e-08 6 0H18Z" fill="black"/>
</svg>
