<svg width="24" height="24" viewBox="0 0 24 24" fill="none" xmlns="http://www.w3.org/2000/svg">
<g clip-path="url(#clip0_1303_868)">
<path d="M23 22C23.5523 22 24 22.4477 24 23C24 23.5523 23.5523 24 23 24H1C0.447716 24 1.08565e-06 23.5523 0 23C4.82823e-08 22.4477 0.447715 22 1 22H23Z" fill="black"/>
<path d="M12 0C12.5523 2.41411e-08 13 0.447715 13 1V14.1729L15.5371 11.6367C15.9276 11.2463 16.5607 11.2462 16.9512 11.6367C17.3416 12.0272 17.3416 12.6603 16.9512 13.0508L12.708 17.2939C12.5127 17.489 12.2568 17.586 12.001 17.5859C11.9369 17.586 11.8727 17.5806 11.8096 17.5684C11.778 17.5622 11.7468 17.5541 11.7158 17.5449C11.5614 17.4992 11.4159 17.4157 11.2939 17.2939L7.05078 13.0508C6.66036 12.6603 6.66036 12.0272 7.05078 11.6367C7.44128 11.2462 8.07431 11.2463 8.46484 11.6367L11 14.1709V1C11 0.447715 11.4477 -2.41411e-08 12 0Z" fill="black"/>
</g>
<defs>
<clipPath id="clip0_1303_868">
<rect width="24" height="24" fill="white"/>
</clipPath>
</defs>
</svg>
