<svg width="24" height="24" viewBox="0 0 24 24" fill="none" xmlns="http://www.w3.org/2000/svg">
<path d="M13 20C13.5523 20 14 20.4477 14 21C14 21.5523 13.5523 22 13 22H1C0.447715 22 0 21.5523 0 21C0 20.4477 0.447715 20 1 20H13Z" fill="black"/>
<path d="M19 14C19.5523 14 20 14.4477 20 15C20 15.5523 19.5523 16 19 16H1C0.447715 16 0 15.5523 0 15C0 14.4477 0.447715 14 1 14H19Z" fill="black"/>
<path d="M13 8C13.5523 8 14 8.44772 14 9C14 9.55228 13.5523 10 13 10H1C0.447715 10 0 9.55228 0 9C0 8.44772 0.447715 8 1 8H13Z" fill="black"/>
<path d="M23 2C23.5523 2 24 2.44772 24 3C24 3.55228 23.5523 4 23 4H1C0.447715 4 0 3.55228 0 3C0 2.44772 0.447715 2 1 2H23Z" fill="black"/>
</svg>
