<svg width="24" height="24" viewBox="0 0 24 24" fill="none" xmlns="http://www.w3.org/2000/svg">
<g clip-path="url(#clip0_1303_744)">
<path d="M7.99996 6.33008e-10C8.55226 -1.9475e-05 9 0.447703 9 1C9 1.55227 8.55231 1.99998 8.00004 2L2 2.00024V7.99996C2 8.55225 1.55228 8.99996 1 8.99996C0.447715 8.99996 0 8.55225 0 7.99996V1.25024C0 0.559881 0.559645 0.000238024 1.25 0.000238024L7.99996 6.33008e-10Z" fill="black"/>
<path d="M16 6.33008e-10C15.4477 -1.9475e-05 15 0.447703 15 1C15 1.55227 15.4477 1.99998 16 2L22 2.00024V7.99996C22 8.55225 22.4477 8.99996 23 8.99996C23.5523 8.99996 24 8.55225 24 7.99996V1.25024C24 0.559881 23.4404 0.000238024 22.75 0.000238024L16 6.33008e-10Z" fill="black"/>
<path d="M7.99996 23.9999C8.55226 23.9999 9 23.5522 9 22.9999C9 22.4477 8.55231 21.9999 8.00004 21.9999L2 21.9997V16C2 15.4477 1.55228 15 1 15C0.447715 15 0 15.4477 0 16V22.7497C0 23.44 0.559645 23.9997 1.25 23.9997L7.99996 23.9999Z" fill="black"/>
<path d="M16 23.9999C15.4477 23.9999 15 23.5522 15 22.9999C15 22.4477 15.4477 21.9999 16 21.9999L22 21.9997V16C22 15.4477 22.4477 15 23 15C23.5523 15 24 15.4477 24 16V22.7497C24 23.44 23.4404 23.9997 22.75 23.9997L16 23.9999Z" fill="black"/>
<path d="M6.00001 5.99997C6.00001 5.44768 6.44772 4.99997 7.00001 4.99997H17C17.5523 4.99997 18 5.44768 18 5.99997C18 6.55225 17.5523 6.99997 17 6.99997H7.00001C6.44772 6.99997 6.00001 6.55225 6.00001 5.99997Z" fill="black"/>
<path d="M12 19C11.4477 19 11 18.5523 11 18L11 6.99997H13V18C13 18.5523 12.5523 19 12 19Z" fill="black"/>
</g>
<defs>
<clipPath id="clip0_1303_744">
<rect width="24" height="24" fill="white"/>
</clipPath>
</defs>
</svg>
