<svg width="24" height="24" viewBox="0 0 24 24" fill="none" xmlns="http://www.w3.org/2000/svg">
<path d="M12 17C12.5523 17 13 17.4477 13 18C13 18.5523 12.5523 19 12 19C11.4477 19 11 18.5523 11 18C11 17.4477 11.4477 17 12 17ZM12 5C12.5523 5 13 5.44772 13 6V14C13 14.5523 12.5523 15 12 15C11.4477 15 11 14.5523 11 14V6C11 5.44772 11.4477 5 12 5Z" fill="black"/>
<path d="M15.7227 1C16.7366 1 17.2435 1 17.6957 1.15428C18.0956 1.29076 18.4628 1.51387 18.7725 1.80869C19.1227 2.14194 19.3688 2.59959 19.8611 3.51488L23.1489 9.62744C23.615 10.494 23.8481 10.9273 23.9394 11.3862C24.0202 11.7923 24.0202 12.2111 23.9393 12.6172L23.8983 12.7891C23.7861 13.1912 23.5564 13.6176 23.1485 14.3758L19.8611 20.4849L19.5322 21.0908C19.2389 21.6208 19.0351 21.9406 18.7726 22.1904L18.6542 22.2979C18.3711 22.5398 18.0458 22.7252 17.696 22.8446L17.5234 22.8955C17.1097 22.9989 16.6108 22.9989 15.7237 22.999L8.27806 23L8.27738 21L15.7236 20.999C16.8763 20.9989 16.9862 20.9738 17.0498 20.9521C17.1728 20.9101 17.2906 20.8392 17.3935 20.7412C17.457 20.6808 17.5416 20.5739 18.0996 19.5371L21.3876 13.4277C21.9124 12.4524 21.9582 12.3228 21.9774 12.2266C22.007 12.0784 22.007 11.9246 21.9774 11.7764C21.9582 11.6802 21.9122 11.5505 21.3876 10.5752L18.0996 4.46191C17.5421 3.42559 17.457 3.31828 17.3935 3.25781C17.2905 3.15982 17.1729 3.08889 17.0498 3.04688C16.9862 3.02519 16.8777 3 15.7226 3H8.27738C7.12444 3 7.01384 3.02522 6.95024 3.04688C6.82712 3.08889 6.70847 3.15981 6.60552 3.25781C6.54205 3.31834 6.4561 3.42694 5.89947 4.46191L2.61239 10.5752C2.08783 11.5506 2.04174 11.6802 2.02255 11.7764C1.99305 11.9246 1.99302 12.0784 2.02255 12.2266C2.04176 12.3228 2.08761 12.4525 2.61239 13.4277L5.90044 19.5381C6.45837 20.5749 6.54298 20.6827 6.60649 20.7432C6.70946 20.8411 6.8281 20.9111 6.95122 20.9531C7.0148 20.9748 7.12467 21.0001 8.27738 21L8.27806 23L7.60551 22.998C7.11284 22.9921 6.77403 22.9702 6.47856 22.8965L6.3052 22.846C5.9551 22.7266 5.63008 22.541 5.34674 22.2988L5.22827 22.1918C4.96566 21.9419 4.76124 21.6222 4.46784 21.0918L4.13943 20.4859L0.851506 14.3757C0.443571 13.6176 0.213916 13.1912 0.101668 12.7891L0.0607208 12.6172C-0.0201961 12.2111 -0.0202407 11.7923 0.0605898 11.3862C0.129133 11.0421 0.277629 10.712 0.544047 10.2031L0.851 9.6275L4.13842 3.51504C4.63072 2.59969 4.87687 2.14201 5.22701 1.80874C5.49795 1.55085 5.81299 1.34814 6.15532 1.20996L6.30392 1.15429C6.64302 1.03857 7.01301 1.00919 7.60453 1.00195L8.27695 1L15.7227 1Z" fill="black"/>
</svg>
