<svg width="24" height="24" viewBox="0 0 24 24" fill="none" xmlns="http://www.w3.org/2000/svg">
<path fill-rule="evenodd" clip-rule="evenodd" d="M13.4991 0C14.5557 1.58599e-05 15.4143 0.199811 15.9981 0.793945C16.4116 1.21506 16.578 1.74272 16.666 2.14844L16.7344 2.50586L16.7451 2.58008L16.9307 4.31152C17.5205 4.37401 18.0913 4.44122 18.6241 4.50781C19.6339 4.63404 20.5173 4.75982 21.1485 4.85449C21.4641 4.90184 21.7171 4.94197 21.8916 4.96973C21.9788 4.98359 22.0467 4.99444 22.0928 5.00195C22.1157 5.00569 22.1335 5.00876 22.1455 5.01074C22.1514 5.01172 22.1561 5.01218 22.1592 5.0127C22.1608 5.01296 22.1622 5.01352 22.1631 5.01367C22.7078 5.10445 23.077 5.61941 22.9864 6.16406C22.8956 6.70872 22.3806 7.07693 21.836 6.98633C21.8354 6.98621 21.8333 6.98556 21.8321 6.98535C21.8295 6.98492 21.8256 6.98426 21.8203 6.9834C21.8094 6.9816 21.7924 6.97915 21.7705 6.97559C21.7268 6.96846 21.6616 6.95777 21.5772 6.94434C21.4079 6.91741 21.1608 6.87939 20.8516 6.83301C20.598 6.79497 20.3029 6.75147 19.9746 6.70508L19.6494 15.8398C19.599 17.2511 19.4377 18.8768 18.9131 20.2998C18.3823 21.7397 17.4365 23.0762 15.7715 23.6846C15.2374 23.8797 14.6445 24 14 24H10C9.3556 24 8.76268 23.8797 8.22855 23.6846C6.56361 23.0762 5.61778 21.7397 5.08694 20.2998C4.56238 18.8768 4.40104 17.2511 4.35062 15.8398L4.02444 6.70508C3.69661 6.75141 3.40179 6.79501 3.14847 6.83301C2.83928 6.87939 2.59211 6.91741 2.42288 6.94434C2.33843 6.95777 2.27323 6.96846 2.22952 6.97559C2.20768 6.97915 2.19061 6.9816 2.17972 6.9834C2.1745 6.98426 2.17057 6.98493 2.168 6.98535C2.1667 6.98557 2.16565 6.98623 2.16507 6.98633C1.62043 7.07691 1.10448 6.70872 1.0137 6.16406C0.923107 5.61942 1.29132 5.10446 1.83597 5.01367C1.83683 5.01353 1.83927 5.01296 1.84085 5.0127C1.84399 5.01217 1.84861 5.01172 1.85452 5.01074C1.86653 5.00876 1.88432 5.00569 1.90726 5.00195C1.95336 4.99444 2.02125 4.9836 2.10843 4.96973C2.28292 4.94197 2.53593 4.90184 2.85159 4.85449C3.48275 4.75982 4.36618 4.63404 5.37601 4.50781C5.90844 4.44126 6.47895 4.37398 7.06839 4.31152L7.25784 2.56934L7.26956 2.48926C7.3466 2.08498 7.45945 1.32882 8.01468 0.772461C8.60133 0.184664 9.46022 4.02058e-06 10.5039 0H13.4991ZM12 6C10.1898 6 7.92991 6.21506 6.01565 6.44629L6.34964 15.7676C6.39782 17.1167 6.54991 18.4881 6.96292 19.6084C7.36971 20.7118 7.9857 21.4661 8.91507 21.8057C9.24859 21.9275 9.60944 22 10 22H14C14.3906 22 14.7515 21.9275 15.085 21.8057C16.0144 21.4661 16.6303 20.7118 17.0371 19.6084C17.4502 18.4881 17.6022 17.1167 17.6504 15.7676L17.9834 6.44629C16.0694 6.21511 13.81 6 12 6ZM10.5039 2C9.61809 2 9.44115 2.17312 9.42972 2.18457C9.38859 2.22579 9.34197 2.30562 9.24026 2.83301L9.09964 4.12695C10.1021 4.05075 11.0974 4 12 4C12.9023 4 13.8973 4.05079 14.8994 4.12695L14.7617 2.83887C14.6675 2.33459 14.619 2.2439 14.5713 2.19531C14.5532 2.17693 14.3688 2.00002 13.4991 2H10.5039Z" fill="black"/>
</svg>
