<svg width="24" height="24" viewBox="0 0 24 24" fill="none" xmlns="http://www.w3.org/2000/svg">
<g clip-path="url(#clip0_1349_407)">
<path d="M23 15C23.5523 15 24 15.4477 24 16V21.4004C24 21.6638 24.0011 21.9219 23.9834 22.1387C23.9647 22.3672 23.9204 22.6369 23.7822 22.9082C23.5905 23.2845 23.2845 23.5905 22.9082 23.7822C22.6369 23.9204 22.3672 23.9647 22.1387 23.9834C21.9219 24.0011 21.6638 24 21.4004 24H2.59961C2.33622 24 2.07814 24.0011 1.86133 23.9834C1.63283 23.9647 1.36305 23.9204 1.0918 23.7822C0.715549 23.5905 0.409506 23.2845 0.217773 22.9082C0.0795613 22.6369 0.0352974 22.3672 0.0166016 22.1387C-0.00111261 21.9219 -7.63284e-07 21.6638 0 21.4004V16C0 15.4477 0.447722 15 1 15C1.55228 15 2 15.4477 2 16V21.4004C2 21.6967 2.00122 21.8591 2.01074 21.9756C2.01108 21.9797 2.01138 21.9836 2.01172 21.9873C2.01574 21.9877 2.01993 21.9889 2.02441 21.9893C2.14095 21.9988 2.30334 22 2.59961 22H21.4004C21.6967 22 21.8591 21.9988 21.9756 21.9893C21.9797 21.9889 21.9836 21.9876 21.9873 21.9873C21.9876 21.9836 21.9889 21.9797 21.9893 21.9756C21.9988 21.8591 22 21.6967 22 21.4004V16C22 15.4477 22.4477 15 23 15ZM11.999 0C12.5512 0.00012238 12.9989 0.447855 12.999 1V13.7686L17.334 9.90039C17.7461 9.53293 18.3785 9.5695 18.7461 9.98145C19.1137 10.3935 19.078 11.0259 18.666 11.3936L12.6641 16.7461L12.5908 16.8057C12.2139 17.0831 11.6885 17.0633 11.333 16.7461L5.33398 11.3936C4.92197 11.0258 4.88624 10.3935 5.25391 9.98145C5.62161 9.56946 6.25396 9.53374 6.66602 9.90137L10.999 13.7676V1C10.9991 0.447779 11.4468 -4.82782e-08 11.999 0Z" fill="black"/>
</g>
<defs>
<clipPath id="clip0_1349_407">
<rect width="24" height="24" fill="white"/>
</clipPath>
</defs>
</svg>
