<svg width="24" height="24" viewBox="0 0 24 24" fill="none" xmlns="http://www.w3.org/2000/svg">
<g clip-path="url(#clip0_1559_431)">
<path d="M14 7.2002C14 6.62365 13.9987 6.25112 13.9756 5.96778C13.9534 5.69619 13.9158 5.59534 13.8906 5.5459C13.7948 5.35793 13.6421 5.20522 13.4541 5.10938C13.4047 5.08419 13.3038 5.04662 13.0322 5.02442C12.7489 5.00127 12.3764 5 11.7998 5H4.2002C3.62365 5 3.25112 5.00127 2.96778 5.02442C2.69619 5.04662 2.59534 5.08419 2.5459 5.10938C2.35793 5.20522 2.20522 5.35793 2.10938 5.5459C2.08419 5.59534 2.04662 5.69619 2.02442 5.96778C2.00127 6.25112 2 6.62365 2 7.2002V19.7998C2 20.3764 2.00127 20.7489 2.02442 21.0322C2.04662 21.3038 2.08419 21.4047 2.10938 21.4541C2.20522 21.6421 2.35793 21.7948 2.5459 21.8906C2.59534 21.9158 2.69619 21.9534 2.96778 21.9756C3.25112 21.9987 3.62365 22 4.2002 22H11.7998C12.3764 22 12.7489 21.9987 13.0322 21.9756C13.3038 21.9534 13.4047 21.9158 13.4541 21.8906C13.6421 21.7948 13.7948 21.6421 13.8906 21.4541C13.9158 21.4047 13.9544 21.3039 13.9766 21.0322C13.9997 20.7489 14 20.3764 14 19.7998V7.2002ZM16 19H19.7998C20.3764 19 20.7489 18.9987 21.0322 18.9756C21.3038 18.9534 21.4047 18.9158 21.4541 18.8906C21.6421 18.7948 21.7948 18.6421 21.8906 18.4541C21.9158 18.4047 21.9544 18.3039 21.9766 18.0322C21.9997 17.7489 22 17.3764 22 16.7998V4.2002C22 3.62365 21.9997 3.25112 21.9766 2.96778C21.9544 2.69613 21.9158 2.59534 21.8906 2.5459C21.7948 2.35793 21.6421 2.20522 21.4541 2.10938C21.4047 2.08419 21.3038 2.04662 21.0322 2.02442C20.7489 2.00127 20.3764 2 19.7998 2H12.2002C11.6236 2 11.2511 2.00127 10.9678 2.02442C10.6962 2.04662 10.5953 2.08419 10.5459 2.10938C10.3579 2.20522 10.2052 2.35793 10.1094 2.5459C10.0842 2.59534 10.0466 2.69619 10.0244 2.96778C10.0236 2.97835 10.0233 2.98918 10.0225 3H11.7998C12.3434 3 12.8116 2.99893 13.1953 3.03028C13.5906 3.06259 13.984 3.1344 14.3623 3.32715C14.9265 3.61473 15.3853 4.07348 15.6729 4.6377C15.8656 5.016 15.9374 5.40944 15.9697 5.80469C16.0011 6.18836 16 6.65665 16 7.2002V19ZM24 16.7998C24 17.3434 24.0011 17.8116 23.9697 18.1953C23.9374 18.5906 23.8656 18.984 23.6729 19.3623C23.3853 19.9265 22.9265 20.3853 22.3623 20.6729C21.984 20.8656 21.5906 20.9374 21.1953 20.9697C20.8116 21.0011 20.3434 21 19.7998 21H15.9815C15.9779 21.0672 15.9749 21.1326 15.9697 21.1953C15.9374 21.5906 15.8656 21.984 15.6729 22.3623C15.3853 22.9265 14.9265 23.3853 14.3623 23.6729C13.984 23.8656 13.5906 23.9374 13.1953 23.9697C12.8116 24.0011 12.3434 24 11.7998 24H4.2002C3.65665 24 3.18836 24.0011 2.80469 23.9697C2.40943 23.9374 2.016 23.8656 1.6377 23.6729C1.07348 23.3853 0.614727 22.9265 0.327153 22.3623C0.134402 21.984 0.0625888 21.5906 0.0302779 21.1953C-0.00106924 20.8116 4.41417e-06 20.3434 4.41417e-06 19.7998V7.2002C4.41417e-06 6.65665 -0.00106936 6.18836 0.0302779 5.80469C0.0625888 5.40943 0.134401 5.016 0.327153 4.6377C0.614727 4.07348 1.07348 3.61473 1.6377 3.32715C2.016 3.1344 2.40943 3.06259 2.80469 3.03028C3.18836 2.99893 3.65665 3 4.2002 3H8.01856C8.02211 2.93279 8.02515 2.86745 8.03028 2.80469C8.06259 2.40943 8.1344 2.016 8.32715 1.6377C8.61473 1.07348 9.07348 0.614727 9.6377 0.327153C10.016 0.134401 10.4094 0.0625889 10.8047 0.0302779C11.1884 -0.0010693 11.6566 4.41417e-06 12.2002 4.41417e-06H19.7998C20.3434 4.41417e-06 20.8116 -0.00106936 21.1953 0.0302779C21.5906 0.0625888 21.984 0.134401 22.3623 0.327153C22.9265 0.614726 23.3853 1.07348 23.6729 1.6377C23.8656 2.016 23.9374 2.40944 23.9697 2.80469C24.0011 3.18836 24 3.65665 24 4.2002V16.7998Z" fill="black"/>
</g>
<defs>
<clipPath id="clip0_1559_431">
<rect width="24" height="24" fill="white"/>
</clipPath>
</defs>
</svg>
