<svg width="24" height="24" viewBox="0 0 24 24" fill="none" xmlns="http://www.w3.org/2000/svg">
<g clip-path="url(#clip0_1355_554)">
<path fill-rule="evenodd" clip-rule="evenodd" d="M19.791 0.10174C20.1926 -0.0287198 20.6257 -0.0286899 21.0273 0.10174C21.3169 0.195818 21.5391 0.355726 21.7139 0.504083C21.8795 0.644739 22.061 0.827802 22.2471 1.01385L22.9853 1.75213C23.1715 1.93825 23.3544 2.11959 23.4951 2.28533C23.6435 2.46012 23.8033 2.68229 23.8975 2.97186C24.0279 3.37345 24.0279 3.80658 23.8975 4.20818C23.8034 4.49766 23.6434 4.71994 23.4951 4.89471C23.3544 5.06038 23.1714 5.24188 22.9853 5.42791L19.7148 8.69744C19.7119 8.70041 19.71 8.70427 19.707 8.70721C19.7041 8.71015 19.7002 8.71213 19.6973 8.71502L8.22069 20.1926C7.32488 21.0884 6.80198 21.6149 6.20409 22.0471C5.68637 22.4212 5.12996 22.7398 4.54491 22.9963C3.86921 23.2924 3.15018 23.4754 1.92382 23.7931L1.51366 23.8996C1.48947 23.9059 1.40443 23.9292 1.32323 23.9426C1.24591 23.9552 1.00974 23.9909 0.741201 23.8869C0.452924 23.7751 0.224053 23.5463 0.112295 23.258C0.0085112 22.9896 0.0449719 22.7542 0.0576072 22.6769C0.0709239 22.5956 0.0933203 22.5098 0.0995994 22.4855L0.206045 22.0754C0.523808 20.849 0.706758 20.13 1.00292 19.4543C1.25936 18.8692 1.57797 18.3128 1.95214 17.7951C2.38431 17.1972 2.91084 16.6743 3.80663 15.7785L18.5713 1.01385C18.7573 0.827818 18.9388 0.64476 19.1045 0.504083C19.2792 0.355757 19.5016 0.195825 19.791 0.10174ZM5.22069 17.1926C4.28116 18.1321 3.89029 18.5283 3.57323 18.967C3.28227 19.3695 3.03438 19.8021 2.83495 20.257C2.68313 20.6034 2.56879 20.9712 2.3994 21.5998C3.02804 21.4304 3.39576 21.317 3.74218 21.1652C4.19711 20.9658 4.62963 20.7179 5.03222 20.4269C5.47092 20.1099 5.86699 19.7181 6.80663 18.7785L17.585 7.9992L15.999 6.41326L5.22069 17.1926ZM20.3994 2.02947C20.3103 2.10514 20.1947 2.21956 19.9853 2.42889L17.4131 4.9992L18.999 6.58514L21.5713 4.01385C21.7804 3.80471 21.8951 3.68983 21.9707 3.60076C21.9736 3.59733 21.9759 3.59313 21.9785 3.59002C21.976 3.58698 21.9726 3.58361 21.9697 3.58026C21.8941 3.49117 21.7805 3.37543 21.5713 3.16619L20.833 2.42889C20.6235 2.21939 20.5081 2.10514 20.4189 2.02947C20.4155 2.02658 20.4123 2.02325 20.4092 2.02068C20.4061 2.02325 20.4028 2.02658 20.3994 2.02947Z" fill="black"/>
</g>
<defs>
<clipPath id="clip0_1355_554">
<rect width="24" height="24" fill="white"/>
</clipPath>
</defs>
</svg>
