<svg width="24" height="24" viewBox="0 0 24 24" fill="none" xmlns="http://www.w3.org/2000/svg">
<g clip-path="url(#clip0_1350_433)">
<path d="M21.9999 1C21.9999 0.447715 22.4476 0 22.9999 0C23.5522 0 23.9999 0.447715 23.9999 1V15.9385C23.9999 16.4907 23.5522 16.9385 22.9999 16.9385H3.41398L8.76847 22.293C9.15877 22.6835 9.15892 23.3166 8.76847 23.707C8.37802 24.0974 7.74493 24.0973 7.35441 23.707L0.292884 16.6455C-0.0976357 16.255 -0.0976202 15.622 0.292884 15.2314L7.36417 8.16016C7.7547 7.7698 8.38776 7.7697 8.77824 8.16016C9.16856 8.55064 9.16855 9.18373 8.77824 9.57422L3.41398 14.9385H21.9999V1Z" fill="black"/>
</g>
<defs>
<clipPath id="clip0_1350_433">
<rect width="24" height="24" fill="white"/>
</clipPath>
</defs>
</svg>
