<svg width="24" height="24" viewBox="0 0 24 24" fill="none" xmlns="http://www.w3.org/2000/svg">
<g clip-path="url(#clip0_1318_533)">
<path d="M0 4.8C0 3.11984 0 2.27976 0.32698 1.63803C0.614601 1.07354 1.07354 0.614601 1.63803 0.32698C2.27976 0 3.11984 0 4.8 0H5.2C6.88016 0 7.72024 0 8.36197 0.32698C8.92646 0.614601 9.3854 1.07354 9.67302 1.63803C10 2.27976 10 3.11984 10 4.8V5.2C10 6.88016 10 7.72024 9.67302 8.36197C9.3854 8.92646 8.92646 9.3854 8.36197 9.67302C7.72024 10 6.88016 10 5.2 10H4.8C3.11984 10 2.27976 10 1.63803 9.67302C1.07354 9.3854 0.614601 8.92646 0.32698 8.36197C0 7.72024 0 6.88016 0 5.2V4.8Z" fill="black"/>
<path d="M0 18.8C0 17.1198 0 16.2798 0.32698 15.638C0.614601 15.0735 1.07354 14.6146 1.63803 14.327C2.27976 14 3.11984 14 4.8 14H5.2C6.88016 14 7.72024 14 8.36197 14.327C8.92646 14.6146 9.3854 15.0735 9.67302 15.638C10 16.2798 10 17.1198 10 18.8V19.2C10 20.8802 10 21.7202 9.67302 22.362C9.3854 22.9265 8.92646 23.3854 8.36197 23.673C7.72024 24 6.88016 24 5.2 24H4.8C3.11984 24 2.27976 24 1.63803 23.673C1.07354 23.3854 0.614601 22.9265 0.32698 22.362C0 21.7202 0 20.8802 0 19.2V18.8Z" fill="black"/>
<path d="M14 4.8C14 3.11984 14 2.27976 14.327 1.63803C14.6146 1.07354 15.0735 0.614601 15.638 0.32698C16.2798 0 17.1198 0 18.8 0H19.2C20.8802 0 21.7202 0 22.362 0.32698C22.9265 0.614601 23.3854 1.07354 23.673 1.63803C24 2.27976 24 3.11984 24 4.8V5.2C24 6.88016 24 7.72024 23.673 8.36197C23.3854 8.92646 22.9265 9.3854 22.362 9.67302C21.7202 10 20.8802 10 19.2 10H18.8C17.1198 10 16.2798 10 15.638 9.67302C15.0735 9.3854 14.6146 8.92646 14.327 8.36197C14 7.72024 14 6.88016 14 5.2V4.8Z" fill="black"/>
<path d="M14 18.8C14 17.1198 14 16.2798 14.327 15.638C14.6146 15.0735 15.0735 14.6146 15.638 14.327C16.2798 14 17.1198 14 18.8 14H19.2C20.8802 14 21.7202 14 22.362 14.327C22.9265 14.6146 23.3854 15.0735 23.673 15.638C24 16.2798 24 17.1198 24 18.8V19.2C24 20.8802 24 21.7202 23.673 22.362C23.3854 22.9265 22.9265 23.3854 22.362 23.673C21.7202 24 20.8802 24 19.2 24H18.8C17.1198 24 16.2798 24 15.638 23.673C15.0735 23.3854 14.6146 22.9265 14.327 22.362C14 21.7202 14 20.8802 14 19.2V18.8Z" fill="black"/>
</g>
<defs>
<clipPath id="clip0_1318_533">
<rect width="24" height="24" fill="white"/>
</clipPath>
</defs>
</svg>
