<svg width="24" height="24" viewBox="0 0 24 24" fill="none" xmlns="http://www.w3.org/2000/svg">
<g clip-path="url(#clip0_1352_512)">
<path d="M11 8L11 1C11 0.447715 11.4477 1.95702e-08 12 4.37114e-08C12.5523 6.78525e-08 13 0.447715 13 1L13 8C13 8.55228 12.5523 9 12 9C11.4477 9 11 8.55228 11 8Z" fill="black"/>
<path d="M11 23L11 16C11 15.4477 11.4477 15 12 15C12.5523 15 13 15.4477 13 16L13 23C13 23.5523 12.5523 24 12 24C11.4477 24 11 23.5523 11 23Z" fill="black"/>
<path d="M8.46545 9.88146L3.5157 4.93172C3.12518 4.54119 3.12518 3.90803 3.5157 3.5175C3.90622 3.12698 4.53939 3.12698 4.92991 3.5175L9.87966 8.46725C10.2702 8.85777 10.2702 9.49094 9.87966 9.88146C9.48914 10.272 8.85597 10.272 8.46545 9.88146Z" fill="black"/>
<path d="M19.0729 20.4889L14.1231 15.5391C13.7326 15.1486 13.7326 14.5154 14.1231 14.1249C14.5136 13.7344 15.1468 13.7344 15.5373 14.1249L20.4871 19.0747C20.8776 19.4652 20.8776 20.0984 20.4871 20.4889C20.0966 20.8794 19.4634 20.8794 19.0729 20.4889Z" fill="black"/>
<path d="M8 13.0039L1 13.0039C0.447715 13.0039 -9.78513e-09 12.5562 -2.18557e-08 12.0039C-3.39263e-08 11.4516 0.447715 11.0039 1 11.0039L8 11.0039C8.55228 11.0039 9 11.4516 9 12.0039C9 12.5562 8.55228 13.0039 8 13.0039Z" fill="black"/>
<path d="M23.002 13.0039L16.002 13.0039C15.4497 13.0039 15.002 12.5562 15.002 12.0039C15.002 11.4516 15.4497 11.0039 16.002 11.0039L23.002 11.0039C23.5542 11.0039 24.002 11.4516 24.002 12.0039C24.002 12.5562 23.5542 13.0039 23.002 13.0039Z" fill="black"/>
<path d="M9.8756 15.5424L4.92586 20.4921C4.53533 20.8826 3.90217 20.8826 3.51164 20.4921C3.12112 20.1016 3.12112 19.4684 3.51164 19.0779L8.46139 14.1282C8.85191 13.7376 9.48508 13.7376 9.8756 14.1282C10.2661 14.5187 10.2661 15.1518 9.8756 15.5424Z" fill="black"/>
<path d="M20.483 4.93299L15.5333 9.88274C15.1428 10.2733 14.5096 10.2733 14.1191 9.88274C13.7285 9.49221 13.7285 8.85905 14.1191 8.46852L19.0688 3.51878C19.4593 3.12825 20.0925 3.12825 20.483 3.51878C20.8735 3.9093 20.8735 4.54246 20.483 4.93299Z" fill="black"/>
</g>
<defs>
<clipPath id="clip0_1352_512">
<rect width="24" height="24" fill="white"/>
</clipPath>
</defs>
</svg>
