<svg width="24" height="24" viewBox="0 0 24 24" fill="none" xmlns="http://www.w3.org/2000/svg">
<path d="M23 15.9999H3.41406L6.70703 12.707C7.09756 12.3164 7.09756 11.6834 6.70703 11.2929C6.31651 10.9024 5.68349 10.9024 5.29297 11.2929L0.292969 16.2929L0.224609 16.3691C-0.0957412 16.7618 -0.0731474 17.3408 0.292969 17.707L5.29297 22.707C5.68349 23.0975 6.31651 23.0975 6.70703 22.707C7.09756 22.3164 7.09756 21.6834 6.70703 21.2929L3.41406 17.9999L23 17.9999C23.5523 17.9999 24 17.5522 24 16.9999C24 16.4476 23.5523 15.9999 23 15.9999Z" fill="black"/>
<path d="M1 5.99992H20.5859L17.293 2.70696C16.9024 2.31643 16.9024 1.68342 17.293 1.29289C17.6835 0.902369 18.3165 0.902369 18.707 1.29289L23.707 6.29289L23.7754 6.36907C24.0957 6.76184 24.0731 7.34084 23.707 7.70696L18.707 12.707C18.3165 13.0975 17.6835 13.0975 17.293 12.707C16.9024 12.3164 16.9024 11.6834 17.293 11.2929L20.5859 7.99992H1C0.447716 7.99992 2.64288e-07 7.55221 0 6.99992C-6.58593e-09 6.44764 0.447716 5.99992 1 5.99992Z" fill="black"/>
</svg>
