<svg width="24" height="24" viewBox="0 0 24 24" fill="none" xmlns="http://www.w3.org/2000/svg">
<g clip-path="url(#clip0_1318_516)">
<path d="M9.60049 20.4485C11.0227 19.2932 12.9781 19.2933 14.4003 20.4485L16.247 21.9485C16.6547 22.2798 16.7371 22.9061 16.4315 23.3479C16.1257 23.7897 15.5474 23.8793 15.1396 23.5481L13.2929 22.0481C12.5271 21.4263 11.4736 21.4262 10.7079 22.0481C9.28567 23.2035 7.33036 23.2035 5.90811 22.0481C5.1424 21.4262 4.08889 21.4263 3.32315 22.0481L1.47647 23.5481C1.06861 23.8793 0.490341 23.7897 0.184478 23.3479C-0.120998 22.9062 -0.0385758 22.2798 0.369049 21.9485L2.21573 20.4485C3.63795 19.2932 5.59334 19.2932 7.01553 20.4485C7.78138 21.0707 8.83464 21.0707 9.60049 20.4485ZM16.9862 13.7825C18.4083 12.6275 20.363 12.6275 21.7851 13.7825L23.6317 15.2825C24.0395 15.6138 24.122 16.2401 23.8163 16.6819C23.5105 17.1237 22.9322 17.2133 22.5243 16.8821L20.6786 15.3821C19.9128 14.7599 18.8585 14.7599 18.0927 15.3821C16.6704 16.5375 14.7151 16.5375 13.2929 15.3821C12.5271 14.7603 11.4736 14.7602 10.7079 15.3821C9.28567 16.5375 7.33036 16.5375 5.90811 15.3821C5.1424 14.7602 4.08889 14.7603 3.32315 15.3821L1.47647 16.8821C1.06861 17.2133 0.490341 17.1237 0.184478 16.6819C-0.120998 16.2401 -0.0385759 15.6138 0.369049 15.2825L2.21573 13.7825C3.63795 12.6272 5.59334 12.6272 7.01553 13.7825C7.78138 14.4047 8.83464 14.4047 9.60049 13.7825C11.0227 12.6271 12.9781 12.6273 14.4003 13.7825C15.1662 14.4047 16.2204 14.4047 16.9862 13.7825ZM1.29288 7.86647C3.26216 6.26663 5.9691 6.26663 7.93838 7.86647L8.86124 8.61647C9.26905 8.94781 9.35255 9.57407 9.04678 10.0159C8.74099 10.4575 8.16262 10.547 7.75479 10.2161L6.83096 9.46608C5.51807 8.39952 3.71218 8.39945 2.39932 9.46608L1.47647 10.2161C1.06866 10.5471 0.490313 10.4575 0.184478 10.0159C-0.121187 9.57422 -0.0384015 8.9479 0.369049 8.61647L1.29288 7.86647ZM16.9862 0.866474C18.4083 -0.288506 20.363 -0.288507 21.7851 0.866474L23.6317 2.36647C24.0395 2.69777 24.122 3.32408 23.8163 3.76589C23.5105 4.20766 22.9322 4.29732 22.5243 3.96608L20.6786 2.46608C19.9128 1.84389 18.8585 1.8439 18.0927 2.46608C16.6704 3.62148 14.7151 3.62148 13.2929 2.46608C12.5271 1.84428 11.4736 1.84415 10.7079 2.46608C9.28567 3.62148 7.33036 3.62148 5.90811 2.46608C5.1424 1.84418 4.08889 1.84424 3.32315 2.46608L1.47647 3.96608C1.06861 4.29732 0.490341 4.20766 0.184478 3.76589C-0.120998 3.32413 -0.0385759 2.69775 0.369049 2.36647L2.21573 0.866474C3.63795 -0.288796 5.59334 -0.288853 7.01553 0.866474C7.78138 1.48869 8.83464 1.48867 9.60049 0.866474C11.0227 -0.288868 12.9781 -0.288752 14.4003 0.866474C15.1662 1.4887 16.2204 1.4887 16.9862 0.866474Z" fill="black"/>
</g>
<defs>
<clipPath id="clip0_1318_516">
<rect width="24" height="24" fill="white"/>
</clipPath>
</defs>
</svg>
