<svg width="24" height="24" viewBox="0 0 24 24" fill="none" xmlns="http://www.w3.org/2000/svg">
<g clip-path="url(#clip0_1303_725)">
<path d="M22.75 -0.00195312C23.4404 -0.00195313 24 0.55769 24 1.24805V9.99805C24 10.5503 23.5523 10.998 23 10.998C22.4477 10.998 22 10.5503 22 9.99805V3.41211L3.41406 21.998H10C10.5523 21.998 11 22.4458 11 22.998C11 23.5503 10.5523 23.998 10 23.998H1.25C0.559645 23.998 2.41189e-06 23.4384 0 22.748V14.998C0 14.4458 0.447715 13.998 1 13.998C1.55228 13.998 2 14.4458 2 14.998V20.584L20.5859 1.99805H14C13.4477 1.99805 13 1.55033 13 0.998047C13 0.445762 13.4477 -0.00195312 14 -0.00195312H22.75Z" fill="black"/>
</g>
<defs>
<clipPath id="clip0_1303_725">
<rect width="24" height="24" fill="white"/>
</clipPath>
</defs>
</svg>
