<svg width="24" height="24" viewBox="0 0 24 24" fill="none" xmlns="http://www.w3.org/2000/svg">
<path d="M20.1707 5.45639C20.5627 5.06745 21.1958 5.06938 21.5848 5.46127C21.9738 5.85331 21.971 6.48731 21.5789 6.87631L18.9159 9.51889C17.0193 11.4008 13.9779 11.4586 12.0106 9.65072L10.4295 8.1976C9.29026 7.15074 7.54112 7.14264 6.39144 8.17807L3.54379 10.7425C3.1334 11.1119 2.50122 11.0786 2.13168 10.6683C1.76227 10.2579 1.79558 9.62573 2.20589 9.25619L5.05355 6.69174C6.96973 4.96602 9.88428 4.98007 11.783 6.72494L13.3641 8.17807C14.5445 9.26276 16.3687 9.22804 17.5067 8.09897L20.1707 5.45639Z" fill="black"/>
<path d="M20.1707 12.4564C20.5627 12.0675 21.1958 12.0694 21.5848 12.4613C21.9738 12.8533 21.971 13.4873 21.5789 13.8763L18.9159 16.5189C17.0193 18.4008 13.9779 18.4586 12.0106 16.6507L10.4295 15.1976C9.29026 14.1507 7.54112 14.1426 6.39144 15.1781L3.54379 17.7425C3.1334 18.1119 2.50122 18.0786 2.13168 17.6683C1.76227 17.2579 1.79558 16.6257 2.20589 16.2562L5.05355 13.6917C6.96973 11.966 9.88428 11.9801 11.783 13.7249L13.3641 15.1781C14.5445 16.2628 16.3687 16.228 17.5067 15.099L20.1707 12.4564Z" fill="black"/>
</svg>
