<svg width="24" height="24" viewBox="0 0 24 24" fill="none" xmlns="http://www.w3.org/2000/svg">
<g clip-path="url(#clip0_1383_473)">
<path d="M9 0C13.9706 0 18 4.02944 18 9C18 11.125 17.2619 13.0766 16.0303 14.6162L23.707 22.293C24.0975 22.6835 24.0975 23.3165 23.707 23.707C23.3165 24.0975 22.6835 24.0975 22.293 23.707L14.6162 16.0303C13.0766 17.2619 11.125 18 9 18C4.02944 18 0 13.9706 0 9C0 4.02944 4.02944 0 9 0ZM9 2C5.13401 2 2 5.13401 2 9C2 12.866 5.13401 16 9 16C12.866 16 16 12.866 16 9C16 5.13401 12.866 2 9 2Z" fill="black"/>
</g>
<defs>
<clipPath id="clip0_1383_473">
<rect width="24" height="24" fill="white"/>
</clipPath>
</defs>
</svg>
