<svg width="24" height="24" viewBox="0 0 24 24" fill="none" xmlns="http://www.w3.org/2000/svg">
<g clip-path="url(#clip0_1379_410)">
<path d="M13.6133 0.0761424C13.987 -0.0786367 14.4171 0.00694239 14.7031 0.292939L23.7031 9.29294C24.0936 9.68344 24.0936 10.3165 23.7031 10.707L14.7031 19.707C14.4169 19.9932 13.9861 20.079 13.6123 19.9238C13.2388 19.7686 12.9956 19.4035 12.9961 18.999L13.002 15.04C10.4926 15.2327 7.87832 16.1318 5.82422 17.5693C3.80277 18.984 2.40779 20.8511 2.07605 23.0038C1.99194 23.5496 1.55233 24 1.00009 24C0.447785 24 8.14865e-05 23.5522 0.000201344 22.9999C0.000505596 21.5979 0.000866548 20.2595 0.000976562 18.9941C0.00161937 11.6011 5.73367 5.54876 12.9961 5.0361V0.999971C12.9961 0.595554 13.2397 0.230954 13.6133 0.0761424ZM14.9961 6.99997H13.9961C7.56671 6.99997 2.31914 12.0572 2.01465 18.4111C2.75972 17.4655 3.67105 16.6345 4.67676 15.9306C7.34821 14.061 10.8004 13 14.0039 13H15.0059L14.999 16.582L21.582 9.99997L14.9961 3.41403V6.99997Z" fill="black"/>
</g>
<defs>
<clipPath id="clip0_1379_410">
<rect width="24" height="24" fill="white"/>
</clipPath>
</defs>
</svg>
