<svg width="24" height="24" viewBox="0 0 24 24" fill="none" xmlns="http://www.w3.org/2000/svg">
<g clip-path="url(#clip0_1318_541)">
<path d="M5 0C5.55228 7.74162e-07 6 0.447716 6 1C6 1.55228 5.55228 2 5 2H4L4.00195 20H22.002V19C22.002 18.4477 22.4497 18 23.002 18C23.5542 18 24.002 18.4477 24.002 19V23C24.002 23.5523 23.5542 24 23.002 24C22.4497 24 22.002 23.5523 22.002 23V22H1.00195C0.449669 22 0.0019533 21.5523 0.00195312 21C0.00195317 20.4477 0.449668 20 1.00195 20H2.00195L2 2H1C0.447715 2 1.70775e-07 1.55228 0 1C4.82823e-08 0.447715 0.447715 -4.82823e-08 1 0H5ZM10.1494 2C10.4858 2 10.6541 1.99997 10.8047 2.04883C10.938 2.09213 11.0609 2.16307 11.165 2.25684C11.2827 2.3628 11.3669 2.50845 11.5352 2.7998L19.7568 17.04C19.9386 17.3549 20.0301 17.5124 20.0166 17.6416C20.0048 17.7543 19.9452 17.8572 19.8535 17.9238C19.7483 18 19.5665 18 19.2031 18H17.7705C17.4342 18 17.2658 18 17.1152 17.9512C16.982 17.9079 16.859 17.8369 16.7549 17.7432C16.6372 17.6372 16.553 17.4916 16.3848 17.2002L14.5371 14H10.002V17.2002C10.002 17.4799 10.0016 17.6197 9.94727 17.7266C9.89933 17.8206 9.8226 17.8974 9.72852 17.9453C9.62162 17.9997 9.48181 18 9.20215 18H7.80176C7.52209 18 7.38229 17.9997 7.27539 17.9453C7.18131 17.8974 7.10458 17.8206 7.05664 17.7266C7.00229 17.6197 7.00195 17.4799 7.00195 17.2002V2.7998C7.00195 2.52014 7.00229 2.38033 7.05664 2.27344C7.10458 2.17936 7.18131 2.10262 7.27539 2.05469C7.38229 2.00034 7.52209 2 7.80176 2H10.1494ZM10.002 12H13.3828L10.002 6.14355V12Z" fill="black"/>
</g>
<defs>
<clipPath id="clip0_1318_541">
<rect width="24" height="24" fill="white"/>
</clipPath>
</defs>
</svg>
