<svg width="24" height="24" viewBox="0 0 24 24" fill="none" xmlns="http://www.w3.org/2000/svg">
<path d="M9.19653 14H14.8046C16.1541 14 16.8288 14 17.4315 14.1959C17.9844 14.3756 18.4914 14.6737 18.9174 15.0693C19.3817 15.5006 19.7099 16.0901 20.3663 17.2692C21.2246 18.8109 21.6537 19.5818 21.5862 20.2129C21.5249 20.7846 21.2206 21.3024 20.7509 21.634C20.2323 22 19.35 22 17.5854 22H6.41581C4.65072 22 3.76818 22 3.24952 21.6338C2.77987 21.3022 2.47564 20.7845 2.41445 20.2129C2.34686 19.5816 2.77627 18.8105 3.63508 17.2685C4.29163 16.0896 4.61991 15.5001 5.08428 15.0689C5.51014 14.6734 6.01706 14.3755 6.56976 14.1959C7.17245 14 7.84714 14 9.19653 14Z" stroke="black" stroke-width="2" stroke-linecap="round" stroke-linejoin="round"/>
<circle cx="12" cy="6" r="4" stroke="black" stroke-width="2"/>
</svg>
