<svg width="24" height="24" viewBox="0 0 24 24" fill="none" xmlns="http://www.w3.org/2000/svg">
<g clip-path="url(#clip0_1318_525)">
<path d="M0 3.2C0 2.07989 0 1.51984 0.217987 1.09202C0.409734 0.715695 0.715695 0.409734 1.09202 0.217987C1.51984 0 2.0799 0 3.2 0H20.8C21.9201 0 22.4802 0 22.908 0.217987C23.2843 0.409734 23.5903 0.715695 23.782 1.09202C24 1.51984 24 2.0799 24 3.2V4.8C24 5.92011 24 6.48016 23.782 6.90798C23.5903 7.28431 23.2843 7.59027 22.908 7.78201C22.4802 8 21.9201 8 20.8 8H3.2C2.0799 8 1.51984 8 1.09202 7.78201C0.715695 7.59027 0.409734 7.28431 0.217987 6.90798C0 6.48016 0 5.92011 0 4.8V3.2Z" fill="black"/>
<path d="M0 15C0 14.0681 0 13.6022 0.152241 13.2346C0.355229 12.7446 0.744577 12.3552 1.23463 12.1522C1.60218 12 2.06812 12 3 12H21C21.9319 12 22.3978 12 22.7654 12.1522C23.2554 12.3552 23.6448 12.7446 23.8478 13.2346C24 13.6022 24 14.0681 24 15C24 15.9319 24 16.3978 23.8478 16.7654C23.6448 17.2554 23.2554 17.6448 22.7654 17.8478C22.3978 18 21.9319 18 21 18H3C2.06812 18 1.60218 18 1.23463 17.8478C0.744577 17.6448 0.355229 17.2554 0.152241 16.7654C0 16.3978 0 15.9319 0 15Z" fill="black"/>
<path d="M0 23C0 22.4477 0.447715 22 1 22H23C23.5523 22 24 22.4477 24 23C24 23.5523 23.5523 24 23 24H1C0.447716 24 0 23.5523 0 23Z" fill="black"/>
</g>
<defs>
<clipPath id="clip0_1318_525">
<rect width="24" height="24" fill="white"/>
</clipPath>
</defs>
</svg>
