<svg width="24" height="24" viewBox="0 0 24 24" fill="none" xmlns="http://www.w3.org/2000/svg">
<path d="M23 20C23.5523 20 24 20.4477 24 21C24 21.5523 23.5523 22 23 22H11C10.4477 22 10 21.5523 10 21C10 20.4477 10.4477 20 11 20H23Z" fill="black"/>
<path d="M23 14C23.5523 14 24 14.4477 24 15C24 15.5523 23.5523 16 23 16H5C4.44772 16 4 15.5523 4 15C4 14.4477 4.44772 14 5 14H23Z" fill="black"/>
<path d="M23 8C23.5523 8 24 8.44772 24 9C24 9.55228 23.5523 10 23 10H11C10.4477 10 10 9.55228 10 9C10 8.44772 10.4477 8 11 8H23Z" fill="black"/>
<path d="M23 2C23.5523 2 24 2.44772 24 3C24 3.55228 23.5523 4 23 4H1C0.447715 4 0 3.55228 0 3C0 2.44772 0.447715 2 1 2H23Z" fill="black"/>
</svg>
