<svg width="24" height="24" viewBox="0 0 24 24" fill="none" xmlns="http://www.w3.org/2000/svg">
<path d="M18 20C18.5523 20 19 20.4477 19 21C19 21.5523 18.5523 22 18 22H6C5.44772 22 5 21.5523 5 21C5 20.4477 5.44772 20 6 20H18Z" fill="black"/>
<path d="M21 14C21.5523 14 22 14.4477 22 15C22 15.5523 21.5523 16 21 16H3C2.44772 16 2 15.5523 2 15C2 14.4477 2.44772 14 3 14H21Z" fill="black"/>
<path d="M18 8C18.5523 8 19 8.44772 19 9C19 9.55228 18.5523 10 18 10H6C5.44772 10 5 9.55228 5 9C5 8.44772 5.44772 8 6 8H18Z" fill="black"/>
<path d="M23 2C23.5523 2 24 2.44772 24 3C24 3.55228 23.5523 4 23 4H1C0.447715 4 0 3.55228 0 3C0 2.44772 0.447715 2 1 2H23Z" fill="black"/>
</svg>
