<svg width="24" height="24" viewBox="0 0 24 24" fill="none" xmlns="http://www.w3.org/2000/svg">
<g clip-path="url(#clip0_1303_803)">
<path d="M11.2607 6.73828C11.6682 6.33078 12.3288 6.33078 12.7363 6.73828L16.9492 10.9502C17.3395 11.3407 17.3397 11.9738 16.9492 12.3643C16.5588 12.7546 15.9257 12.7545 15.5352 12.3643L13 9.8291V23C13 23.5523 12.5523 24 12 24C11.4477 24 11 23.5523 11 23V9.82715L8.46289 12.3643C8.07238 12.7545 7.43927 12.7546 7.04883 12.3643C6.65839 11.9738 6.65857 11.3407 7.04883 10.9502L11.2607 6.73828Z" fill="black"/>
<path d="M23 0C23.5523 2.57702e-07 24 0.447715 24 1C24 1.55228 23.5523 2 23 2H1C0.447715 2 0 1.55228 0 1C0 0.447715 0.447715 1.61064e-08 1 0H23Z" fill="black"/>
</g>
<defs>
<clipPath id="clip0_1303_803">
<rect width="24" height="24" fill="white"/>
</clipPath>
</defs>
</svg>
