<svg width="24" height="24" viewBox="0 0 24 24" fill="none" xmlns="http://www.w3.org/2000/svg">
<path d="M8 21C8 21.5523 7.55228 22 7 22C6.44772 22 6 21.5523 6 21V4H1C0.447715 4 0 3.55228 0 3C0 2.44772 0.447715 2 1 2H13C13.5523 2 14 2.44772 14 3C14 3.55228 13.5523 4 13 4H8V21Z" fill="black"/>
<path d="M23 8C23.5523 8 24 8.44772 24 9C24 9.55228 23.5523 10 23 10H19V21C19 21.5523 18.5523 22 18 22C17.4477 22 17 21.5523 17 21V10H13C12.4477 10 12 9.55228 12 9C12 8.44772 12.4477 8 13 8H23Z" fill="black"/>
</svg>
