<svg width="24" height="24" viewBox="0 0 24 24" fill="none" xmlns="http://www.w3.org/2000/svg">
<g clip-path="url(#clip0_1303_849)">
<path d="M11.2607 14.7344C11.6682 14.3269 12.3288 14.3269 12.7363 14.7344L16.9492 18.9463C17.3396 19.3368 17.3397 19.9699 16.9492 20.3604C16.5588 20.7508 15.9257 20.7507 15.5352 20.3604L13.002 17.8271V23C13.002 23.5523 12.5542 24 12.002 24C11.4497 24 11.002 23.5523 11.002 23V17.8213L8.46289 20.3604C8.07235 20.7507 7.4393 20.7508 7.04883 20.3604C6.65835 19.9699 6.65846 19.3368 7.04883 18.9463L11.2607 14.7344Z" fill="black"/>
<path d="M24 11.9971C24 12.5494 23.5523 12.9971 23 12.9971H1C0.447716 12.9971 0 12.5494 0 11.9971C0 11.4448 0.447715 10.9971 1 10.9971H23C23.5523 10.9971 24 11.4448 24 11.9971Z" fill="black"/>
<path d="M12.998 6.17285L15.5352 3.63672C15.9257 3.2462 16.5587 3.24622 16.9492 3.63672C17.3397 4.02724 17.3397 4.66026 16.9492 5.05078L12.7373 9.2627C12.3298 9.66996 11.6691 9.67012 11.2617 9.2627L7.0498 5.05078C6.65924 4.66028 6.65927 4.02725 7.0498 3.63672C7.44032 3.24629 8.07339 3.24624 8.46387 3.63672L10.998 6.1709V1C10.998 0.447715 11.4458 0 11.998 0C12.5503 0 12.998 0.447715 12.998 1V6.17285Z" fill="black"/>
</g>
<defs>
<clipPath id="clip0_1303_849">
<rect width="24" height="24" fill="white"/>
</clipPath>
</defs>
</svg>
