<svg xmlns="http://www.w3.org/2000/svg" viewBox="0 0 840 360" fill="none" aria-hidden="true">
  <defs>
    <linearGradient id="enbp-bg" x1="72" y1="0" x2="780" y2="360" gradientUnits="userSpaceOnUse">
      <stop stop-color="#f4f5f7"/>
      <stop offset="0.45" stop-color="#fff8f8"/>
      <stop offset="1" stop-color="#ffe4e4"/>
    </linearGradient>
    <linearGradient id="enbp-wave" x1="0" y1="180" x2="840" y2="180" gradientUnits="userSpaceOnUse">
      <stop stop-color="#ff4141" stop-opacity="0"/>
      <stop offset="0.5" stop-color="#ff4141" stop-opacity="0.16"/>
      <stop offset="1" stop-color="#ff4141" stop-opacity="0"/>
    </linearGradient>
    <linearGradient id="enbp-glow" x1="420" y1="40" x2="720" y2="340" gradientUnits="userSpaceOnUse">
      <stop stop-color="#ff4141" stop-opacity="0.14"/>
      <stop offset="1" stop-color="#ff7070" stop-opacity="0.04"/>
    </linearGradient>
    <linearGradient id="enbp-card" x1="318" y1="88" x2="522" y2="272" gradientUnits="userSpaceOnUse">
      <stop stop-color="#ffffff"/>
      <stop offset="1" stop-color="#fffbfb"/>
    </linearGradient>
  </defs>
  <rect width="840" height="360" fill="url(#enbp-bg)"/>
  <path d="M0 240 Q210 200 420 232 T840 218 V360 H0Z" fill="url(#enbp-wave)" opacity="0.9"/>
  <path d="M0 288 Q280 248 420 276 T840 252 V360 H0Z" fill="url(#enbp-wave)" opacity="0.55"/>
  <circle cx="700" cy="88" r="128" fill="url(#enbp-glow)"/>
  <circle cx="96" cy="292" r="96" fill="url(#enbp-glow)" opacity="0.7"/>
  <g opacity="0.32" stroke="#ff4141" stroke-width="1.2" stroke-linecap="round">
    <path d="M56 124c84-42 168 42 252 0s168 42 252 0 168 42 252 0"/>
    <path d="M56 156c84-38 168 38 252 0s168 38 252 0 168 38 252 0"/>
    <path d="M56 188c84-34 168 34 252 0s168 34 252 0 168 34 252 0"/>
  </g>
  <g transform="translate(318 88)">
    <rect x="0" y="0" width="204" height="184" rx="22" fill="url(#enbp-card)" stroke="#e8e8ea" stroke-width="1.5"/>
    <rect x="0" y="0" width="204" height="184" rx="22" fill="none" stroke="#ff4141" stroke-opacity="0.12" stroke-width="3"/>
    <text
      x="102"
      y="124"
      text-anchor="middle"
      font-family="system-ui, Segoe UI, Roboto, Helvetica, Arial, sans-serif"
      font-size="76"
      font-weight="800"
      fill="#ff4141"
      letter-spacing="-0.05em"
    >?</text>
    <text
      x="102"
      y="162"
      text-anchor="middle"
      font-family="system-ui, Segoe UI, Roboto, Helvetica, Arial, sans-serif"
      font-size="12.5"
      font-weight="700"
      fill="#6b7280"
      letter-spacing="0.32em"
    >BETA</text>
  </g>
</svg>
