<svg width="32" height="32" viewBox="0 0 32 32" fill="none" xmlns="http://www.w3.org/2000/svg">
<path fill-rule="evenodd" clip-rule="evenodd" d="M26.0117 0C26.7455 0 27.1127 0.00011757 27.458 0.0830078C27.764 0.156506 28.0569 0.277954 28.3252 0.442383C28.6278 0.627892 28.8876 0.887613 29.4062 1.40625L30.5938 2.59375C31.1124 3.11239 31.3721 3.37222 31.5576 3.6748C31.722 3.94313 31.8435 4.236 31.917 4.54199C31.9999 4.88725 32 5.25451 32 5.98828V26.0117C32 26.7455 31.9999 27.1127 31.917 27.458C31.8435 27.764 31.722 28.0569 31.5576 28.3252C31.3721 28.6278 31.1124 28.8876 30.5938 29.4062L29.4062 30.5938C28.8876 31.1124 28.6278 31.3721 28.3252 31.5576C28.0569 31.722 27.764 31.8435 27.458 31.917C27.1127 31.9999 26.7455 32 26.0117 32H5.98828C5.25451 32 4.88725 31.9999 4.54199 31.917C4.236 31.8435 3.94313 31.722 3.6748 31.5576C3.37222 31.3721 3.11239 31.1124 2.59375 30.5938L1.40625 29.4062C0.887614 28.8876 0.627892 28.6278 0.442383 28.3252C0.277954 28.0569 0.156506 27.764 0.0830078 27.458C0.00011757 27.1127 0 26.7455 0 26.0117V5.98828C0 5.25451 0.00011757 4.88725 0.0830078 4.54199C0.156506 4.236 0.277954 3.94313 0.442383 3.6748C0.627892 3.37222 0.887613 3.11239 1.40625 2.59375L2.59375 1.40625C3.11239 0.887614 3.37222 0.627892 3.6748 0.442383C3.94313 0.277954 4.236 0.156506 4.54199 0.0830078C4.88725 0.00011757 5.25451 0 5.98828 0H26.0117ZM12.9932 7C12.1368 7 11.7081 6.99976 11.3262 7.12598C10.9883 7.23766 10.6787 7.42094 10.417 7.66211C10.1212 7.93476 9.91292 8.30886 9.49707 9.05762L6.71875 14.0596C6.32513 14.7683 6.12794 15.1227 6.05078 15.498C5.98248 15.8303 5.98339 16.1736 6.05176 16.5059C6.12908 16.8811 6.32595 17.2357 6.71973 17.9443L9.49805 22.9434C9.91414 23.6922 10.1221 24.0672 10.418 24.3398C10.6796 24.5808 10.9895 24.7634 11.3271 24.875C11.7091 25.0011 12.1378 25.0011 12.9941 25.001L19.2861 25C20.1421 24.9999 20.5704 25.0001 20.9521 24.874C21.29 24.7624 21.6006 24.58 21.8623 24.3389C22.1581 24.0663 22.3663 23.6919 22.7822 22.9434L25.5596 17.9443C25.9534 17.2357 26.1502 16.8811 26.2275 16.5059C26.2959 16.1736 26.2958 15.8303 26.2275 15.498C26.1503 15.1227 25.9533 14.7684 25.5596 14.0596L22.7822 9.05762C22.3664 8.30904 22.1579 7.93475 21.8623 7.66211C21.6006 7.42089 21.2901 7.23765 20.9521 7.12598C20.5702 6.99975 20.1417 7 19.2852 7H12.9932Z" fill="black"/>
</svg>
