<svg width="196" height="32" viewBox="0 0 196 32" fill="none" xmlns="http://www.w3.org/2000/svg">
<path d="M7.70712 25.6114H0V6.36269H7.68185C13.5696 6.36269 16.2481 9.57513 16.2481 15.7668V16.0777C16.2481 22.2953 13.6707 25.6114 7.70712 25.6114ZM3.38608 9.26425V22.7098H7.20173C10.9163 22.7098 12.8368 20.8964 12.8368 16.285V15.5596C12.8368 11.0518 10.9163 9.26425 7.20173 9.26425H3.38608Z" fill="black"/>
<path d="M23.0536 25.6114H19.6676V6.36269H23.0536V25.6114Z" fill="black"/>
<path d="M30.8251 25.6114H27.5148V6.36269H31.4316L40.0484 19.7824L40.7054 20.8187V6.36269H44.0156V25.6114H40.0989L31.4821 12.1917L30.8251 11.1295V25.6114Z" fill="black"/>
<path d="M64.8148 25.6114H61.176L59.6851 21.1554H51.6495L50.1586 25.6114H46.5199L53.4436 6.36269H57.8658L64.8148 25.6114ZM55.1872 10.5337L52.5592 18.4352H58.7754L56.1474 10.5337L55.6926 9.05699H55.6421L55.1872 10.5337Z" fill="black"/>
<path d="M70.6291 25.6114H67.3188V6.36269H71.7662L76.7948 17.9171L77.2496 19.1865H77.2749L77.7297 17.9171L82.7583 6.36269H87.1804V25.6114H83.8702V12.6839L83.9207 10.9741H83.8954L83.3648 12.3212L78.69 22.8394H75.8093L71.1345 12.3212L70.6291 10.9741H70.6038L70.6291 12.6839V25.6114Z" fill="black"/>
<path d="M95.0364 25.6114H91.6503V6.36269H95.0364V25.6114Z" fill="black"/>
<path d="M106.952 26C101.469 26 98.4616 22.6321 98.4616 16.1554V15.8187C98.4616 9.36788 101.469 6 106.977 6C112.435 6 115.114 9.31606 115.291 13.3575V13.4611H111.955V13.3834C111.753 11.0259 110.186 8.97927 107.003 8.97927C103.718 8.97927 101.898 11.2591 101.898 15.6891V16.285C101.898 20.715 103.718 23.0207 106.977 23.0207C109.909 23.0207 111.829 21.4404 111.981 18.6166V18.487H115.341V18.5907C115.165 22.6839 112.511 26 106.952 26Z" fill="black"/>
<path d="M129.979 25.6114H126.593V6.36269H139.783V9.16062H129.979V14.7824H138.823V17.6839H129.979V25.6114Z" fill="black"/>
<path d="M149.672 26C144.062 26 141.005 22.6062 141.005 16.1554V15.7927C141.005 9.36788 144.062 6 149.672 6C155.282 6 158.339 9.36788 158.339 15.7927V16.1554C158.339 22.6062 155.282 26 149.672 26ZM149.672 23.0207C153.058 23.0207 154.928 20.715 154.928 16.2591V15.6891C154.928 11.2591 153.058 8.97927 149.672 8.97927C146.286 8.97927 144.441 11.2591 144.441 15.6891V16.2591C144.441 20.715 146.286 23.0207 149.672 23.0207Z" fill="black"/>
<path d="M165.068 25.6114H161.758V6.36269H165.674L174.291 19.7824L174.948 20.8187V6.36269H178.258V25.6114H174.342L165.725 12.1917L165.068 11.1295V25.6114Z" fill="black"/>
<path d="M190.011 25.6114H186.6V9.26425H180.611V6.36269H196V9.26425H190.011V25.6114Z" fill="black"/>
</svg>
