<svg width="24" height="24" viewBox="0 0 24 24" fill="none" xmlns="http://www.w3.org/2000/svg">
<g clip-path="url(#clip0_1355_554)">
<path d="M3.27246 19.3599C3.05099 19.5813 3.00898 19.6263 2.97622 19.6699C2.93856 19.7201 2.90578 19.7738 2.87817 19.8301C2.85415 19.8791 2.83283 19.9368 2.73592 20.2348L2.21802 21.8285L3.81177 21.3106C4.10978 21.2137 4.16742 21.1924 4.21642 21.1684C4.27275 21.1407 4.32645 21.108 4.37662 21.0703C4.42025 21.0375 4.4652 20.9955 4.68667 20.7741L16.2811 9.17965L14.8669 7.76543L3.27246 19.3599ZM14.0465 5.75736C14.0547 5.74923 14.1031 5.69994 14.1543 5.65654C14.2144 5.60552 14.3403 5.50732 14.5271 5.44662C14.748 5.37489 14.9858 5.37489 15.2066 5.44662C15.3934 5.50732 15.5194 5.60552 15.5795 5.65654C15.6306 5.69994 15.6791 5.74923 15.6872 5.75736L18.2892 8.35929C18.2973 8.36742 18.3466 8.41589 18.39 8.46701C18.441 8.52713 18.5392 8.6531 18.5999 8.8399C18.6716 9.06076 18.6716 9.29853 18.5999 9.51939C18.5392 9.70619 18.441 9.83216 18.39 9.89228C18.3466 9.9434 18.2973 9.99187 18.2892 10L6.10089 22.1883C5.91774 22.3714 5.76006 22.5318 5.57746 22.6689C5.42677 22.7821 5.26606 22.8815 5.09685 22.9644C4.89177 23.065 4.67682 23.1322 4.43049 23.2123L2.46315 23.8525C2.24107 23.9247 2.00852 24.0013 1.81267 24.0458C1.63029 24.0872 1.29237 24.149 0.93086 24.0189L0.777561 23.954C0.430162 23.7834 0.160156 23.4839 0.0276415 23.1157C-0.102457 22.7542 -0.0407108 22.4162 0.000710405 22.2339C0.045192 22.038 0.121835 21.8055 0.19406 21.5834L0.834185 19.616C0.914293 19.3697 0.981572 19.1548 1.08209 18.9497C1.16504 18.7805 1.26447 18.6198 1.37763 18.4691C1.51477 18.2865 1.6751 18.1288 1.85825 17.9456L14.0465 5.75736Z" fill="black"/>
<path d="M19.4349 3.0136L18.7278 3.72071L20.142 5.13492L20.8491 4.42781C21.1978 4.07908 21.6943 3.5807 21.8228 3.43338C21.8285 3.42689 21.8337 3.42054 21.8387 3.41474C21.8335 3.4087 21.8287 3.4015 21.8228 3.39471C21.6943 3.2474 21.5045 3.05567 21.1557 2.70694L22.57 1.29273C23.2289 1.95167 23.5585 2.28139 23.7107 2.64893C23.8882 3.07759 23.9101 3.55248 23.777 3.99271L23.7107 4.17916C23.5585 4.5467 22.9222 5.18309 22.2633 5.84203L21.2731 6.83225C20.8772 7.22809 20.6789 7.42583 20.4506 7.5C20.25 7.56515 20.034 7.56515 19.8333 7.5C19.605 7.42583 19.4067 7.22809 19.0109 6.83225L17.0304 4.8518L16.7701 4.58871C16.5437 4.3551 16.4183 4.20069 16.3627 4.02938C16.2975 3.82869 16.2975 3.61272 16.3627 3.41204C16.4368 3.18376 16.6346 2.98545 17.0304 2.58961L18.0206 1.59939C18.6796 0.940447 19.316 0.304205 19.6835 0.151964L19.87 0.0856731C20.3102 -0.0474299 20.7851 -0.0255202 21.2137 0.151964L21.3512 0.217565C21.6694 0.391655 21.9935 0.716287 22.57 1.29273L21.1557 2.70694C20.807 2.35821 20.6153 2.16839 20.468 2.03988C20.4615 2.03421 20.4544 2.02967 20.4486 2.02469C20.4428 2.02967 20.4358 2.03421 20.4293 2.03988C20.282 2.16839 19.7836 2.66487 19.4349 3.0136Z" fill="black"/>
</g>
<defs>
<clipPath id="clip0_1355_554">
<rect width="24" height="24" fill="white"/>
</clipPath>
</defs>
</svg>
