<svg width="24" height="24" viewBox="0 0 24 24" fill="none" xmlns="http://www.w3.org/2000/svg">
<g clip-path="url(#clip0_1347_378)">
<path d="M0 2.4C0 1.55992 0 1.13988 0.16349 0.819014C0.3073 0.536771 0.536771 0.3073 0.819014 0.16349C1.13988 0 1.55992 0 2.4 0H3.6C4.44008 0 4.86012 0 5.18099 0.16349C5.46323 0.3073 5.6927 0.536771 5.83651 0.819014C6 1.13988 6 1.55992 6 2.4V3.6C6 4.44008 6 4.86012 5.83651 5.18099C5.6927 5.46323 5.46323 5.6927 5.18099 5.83651C4.86012 6 4.44008 6 3.6 6H2.4C1.55992 6 1.13988 6 0.819014 5.83651C0.536771 5.6927 0.3073 5.46323 0.16349 5.18099C0 4.86012 0 4.44008 0 3.6V2.4Z" fill="black"/>
<path d="M9 2.4C9 1.55992 9 1.13988 9.16349 0.819014C9.3073 0.536771 9.53677 0.3073 9.81901 0.16349C10.1399 0 10.5599 0 11.4 0H12.6C13.4401 0 13.8601 0 14.181 0.16349C14.4632 0.3073 14.6927 0.536771 14.8365 0.819014C15 1.13988 15 1.55992 15 2.4V3.6C15 4.44008 15 4.86012 14.8365 5.18099C14.6927 5.46323 14.4632 5.6927 14.181 5.83651C13.8601 6 13.4401 6 12.6 6H11.4C10.5599 6 10.1399 6 9.81901 5.83651C9.53677 5.6927 9.3073 5.46323 9.16349 5.18099C9 4.86012 9 4.44008 9 3.6V2.4Z" fill="black"/>
<path d="M18 2.4C18 1.55992 18 1.13988 18.1635 0.819014C18.3073 0.536771 18.5368 0.3073 18.819 0.16349C19.1399 0 19.5599 0 20.4 0H21.6C22.4401 0 22.8601 0 23.181 0.16349C23.4632 0.3073 23.6927 0.536771 23.8365 0.819014C24 1.13988 24 1.55992 24 2.4V3.6C24 4.44008 24 4.86012 23.8365 5.18099C23.6927 5.46323 23.4632 5.6927 23.181 5.83651C22.8601 6 22.4401 6 21.6 6H20.4C19.5599 6 19.1399 6 18.819 5.83651C18.5368 5.6927 18.3073 5.46323 18.1635 5.18099C18 4.86012 18 4.44008 18 3.6V2.4Z" fill="black"/>
<path d="M0 11.4C0 10.5599 0 10.1399 0.16349 9.81901C0.3073 9.53677 0.536771 9.3073 0.819014 9.16349C1.13988 9 1.55992 9 2.4 9H3.6C4.44008 9 4.86012 9 5.18099 9.16349C5.46323 9.3073 5.6927 9.53677 5.83651 9.81901C6 10.1399 6 10.5599 6 11.4V12.6C6 13.4401 6 13.8601 5.83651 14.181C5.6927 14.4632 5.46323 14.6927 5.18099 14.8365C4.86012 15 4.44008 15 3.6 15H2.4C1.55992 15 1.13988 15 0.819014 14.8365C0.536771 14.6927 0.3073 14.4632 0.16349 14.181C0 13.8601 0 13.4401 0 12.6V11.4Z" fill="black"/>
<path d="M9 11.4C9 10.5599 9 10.1399 9.16349 9.81901C9.3073 9.53677 9.53677 9.3073 9.81901 9.16349C10.1399 9 10.5599 9 11.4 9H12.6C13.4401 9 13.8601 9 14.181 9.16349C14.4632 9.3073 14.6927 9.53677 14.8365 9.81901C15 10.1399 15 10.5599 15 11.4V12.6C15 13.4401 15 13.8601 14.8365 14.181C14.6927 14.4632 14.4632 14.6927 14.181 14.8365C13.8601 15 13.4401 15 12.6 15H11.4C10.5599 15 10.1399 15 9.81901 14.8365C9.53677 14.6927 9.3073 14.4632 9.16349 14.181C9 13.8601 9 13.4401 9 12.6V11.4Z" fill="black"/>
<path d="M18 11.4C18 10.5599 18 10.1399 18.1635 9.81901C18.3073 9.53677 18.5368 9.3073 18.819 9.16349C19.1399 9 19.5599 9 20.4 9H21.6C22.4401 9 22.8601 9 23.181 9.16349C23.4632 9.3073 23.6927 9.53677 23.8365 9.81901C24 10.1399 24 10.5599 24 11.4V12.6C24 13.4401 24 13.8601 23.8365 14.181C23.6927 14.4632 23.4632 14.6927 23.181 14.8365C22.8601 15 22.4401 15 21.6 15H20.4C19.5599 15 19.1399 15 18.819 14.8365C18.5368 14.6927 18.3073 14.4632 18.1635 14.181C18 13.8601 18 13.4401 18 12.6V11.4Z" fill="black"/>
<path d="M0 20.4C0 19.5599 0 19.1399 0.16349 18.819C0.3073 18.5368 0.536771 18.3073 0.819014 18.1635C1.13988 18 1.55992 18 2.4 18H3.6C4.44008 18 4.86012 18 5.18099 18.1635C5.46323 18.3073 5.6927 18.5368 5.83651 18.819C6 19.1399 6 19.5599 6 20.4V21.6C6 22.4401 6 22.8601 5.83651 23.181C5.6927 23.4632 5.46323 23.6927 5.18099 23.8365C4.86012 24 4.44008 24 3.6 24H2.4C1.55992 24 1.13988 24 0.819014 23.8365C0.536771 23.6927 0.3073 23.4632 0.16349 23.181C0 22.8601 0 22.4401 0 21.6V20.4Z" fill="black"/>
<path d="M9 20.4C9 19.5599 9 19.1399 9.16349 18.819C9.3073 18.5368 9.53677 18.3073 9.81901 18.1635C10.1399 18 10.5599 18 11.4 18H12.6C13.4401 18 13.8601 18 14.181 18.1635C14.4632 18.3073 14.6927 18.5368 14.8365 18.819C15 19.1399 15 19.5599 15 20.4V21.6C15 22.4401 15 22.8601 14.8365 23.181C14.6927 23.4632 14.4632 23.6927 14.181 23.8365C13.8601 24 13.4401 24 12.6 24H11.4C10.5599 24 10.1399 24 9.81901 23.8365C9.53677 23.6927 9.3073 23.4632 9.16349 23.181C9 22.8601 9 22.4401 9 21.6V20.4Z" fill="black"/>
<path d="M18 20.4C18 19.5599 18 19.1399 18.1635 18.819C18.3073 18.5368 18.5368 18.3073 18.819 18.1635C19.1399 18 19.5599 18 20.4 18H21.6C22.4401 18 22.8601 18 23.181 18.1635C23.4632 18.3073 23.6927 18.5368 23.8365 18.819C24 19.1399 24 19.5599 24 20.4V21.6C24 22.4401 24 22.8601 23.8365 23.181C23.6927 23.4632 23.4632 23.6927 23.181 23.8365C22.8601 24 22.4401 24 21.6 24H20.4C19.5599 24 19.1399 24 18.819 23.8365C18.5368 23.6927 18.3073 23.4632 18.1635 23.181C18 22.8601 18 22.4401 18 21.6V20.4Z" fill="black"/>
</g>
<defs>
<clipPath id="clip0_1347_378">
<rect width="24" height="24" fill="white"/>
</clipPath>
</defs>
</svg>
