<svg width="24" height="24" viewBox="0 0 24 24" fill="none" xmlns="http://www.w3.org/2000/svg">
<g clip-path="url(#clip0_1487_500)">
<path d="M22 7.95546C22 5.31408 19.8989 3.15772 17.2568 3.02572L17 3.01882C14.2386 3.01882 12 5.33942 12 8.06587C12 5.33942 9.76142 3.01882 7 3.01882C4.23859 3.01882 2.00002 5.22903 2 7.95546V8.18218L2.00684 8.43848C2.07112 9.71614 2.6138 10.9283 3.53516 11.8364L12 20.1788L20.4648 11.8364C21.3862 10.9283 21.9289 9.71614 21.9932 8.43848L22 8.18218V7.95546ZM24 8.18218C24 10.1039 23.2257 11.9378 21.8623 13.2815L12 23L2.1377 13.2815C0.774304 11.9378 1.35794e-05 10.1039 0 8.18218V7.95546C1.81085e-05 4.07222 3.17594 1 7 1C8.96389 1 10.7319 1.82995 12 3.145C13.2681 1.82995 15.0361 1 17 1C20.8241 1 24 4.07222 24 7.95546V8.18218Z" fill="black"/>
</g>
<defs>
<clipPath id="clip0_1487_500">
<rect width="24" height="24" fill="white"/>
</clipPath>
</defs>
</svg>
