<svg width="24" height="24" viewBox="0 0 24 24" fill="none" xmlns="http://www.w3.org/2000/svg">
<g clip-path="url(#clip0_1310_1027)">
<path d="M5.25328 11.3994C5.94429 9.90223 8.04865 9.83719 8.83043 11.2891L14.0199 20.9258L16.7572 16.0596C17.5218 14.7003 19.4789 14.7003 20.2435 16.0596L23.8714 22.5098C24.1422 22.9911 23.9718 23.6003 23.4906 23.8711C23.0093 24.1418 22.4001 23.9714 22.1293 23.4902L18.5004 17.04L15.763 21.9072C14.9903 23.2808 13.0054 23.2617 12.2582 21.874L7.06969 12.2373L1.90855 23.4189C1.67714 23.9203 1.08282 24.1395 0.581405 23.9082C0.0800149 23.6768 -0.139152 23.0825 0.0921474 22.5811L5.25328 11.3994Z" fill="black"/>
<path d="M17.0004 5C17.0004 6.65685 15.6572 8 14.0004 8C12.3435 8 11.0004 6.65685 11.0004 5C11.0004 3.34315 12.3435 2 14.0004 2C15.6572 2 17.0004 3.34315 17.0004 5Z" fill="black"/>
</g>
<defs>
<clipPath id="clip0_1310_1027">
<rect width="24" height="24" fill="white"/>
</clipPath>
</defs>
</svg>
