<svg width="24" height="24" viewBox="0 0 24 24" fill="none" xmlns="http://www.w3.org/2000/svg">
<g clip-path="url(#clip0_1349_376)">
<path d="M23.1024 0.0193238C23.6067 0.0705548 24.0001 0.49594 24.0001 1.01369L24.0001 11.0002C23.9999 11.5523 23.5523 12 23.0002 12.0001C22.448 12.0001 22.0005 11.5523 22.0003 11.0002L22.0003 3.42642L1.70692 23.7074C1.31628 24.0977 0.683071 24.0979 0.292702 23.7074C-0.0977037 23.3168 -0.0972512 22.6829 0.293392 22.2925L20.5854 2.0129L12.9999 2.01359C12.4478 2.01347 12.0001 1.56581 12 1.01369C12 0.461486 12.4477 0.0139154 12.9999 0.0137996L23.0002 0.0137996L23.1024 0.0193238Z" fill="black"/>
</g>
<defs>
<clipPath id="clip0_1349_376">
<rect width="24" height="24" fill="white"/>
</clipPath>
</defs>
</svg>
