<svg width="24" height="24" viewBox="0 0 24 24" fill="none" xmlns="http://www.w3.org/2000/svg">
<g clip-path="url(#clip0_1429_430)">
<path d="M19.7998 0C20.3434 -2.50835e-08 20.8116 -0.0010738 21.1953 0.0302734C21.5906 0.0625844 21.984 0.134398 22.3623 0.327148C22.9265 0.614724 23.3853 1.07347 23.6729 1.6377C23.8656 2.01599 23.9374 2.40943 23.9697 2.80469C24.0011 3.18836 24 3.65664 24 4.2002V19.7998C24 20.3434 24.0011 20.8116 23.9697 21.1953C23.9374 21.5906 23.8656 21.984 23.6729 22.3623C23.3853 22.9265 22.9265 23.3853 22.3623 23.6729C21.984 23.8656 21.5906 23.9374 21.1953 23.9697C20.8116 24.0011 20.3434 24 19.7998 24H16C15.4477 24 15 23.5523 15 23C15 22.4477 15.4477 22 16 22H19.7998C20.3764 22 20.7489 21.9987 21.0322 21.9756C21.3038 21.9534 21.4047 21.9158 21.4541 21.8906C21.6421 21.7948 21.7948 21.6421 21.8906 21.4541C21.9158 21.4047 21.9534 21.3038 21.9756 21.0322C21.9987 20.7489 22 20.3764 22 19.7998V4.2002C22 3.62364 21.9987 3.25111 21.9756 2.96777C21.9534 2.69619 21.9158 2.59533 21.8906 2.5459C21.7948 2.35793 21.6421 2.20522 21.4541 2.10938C21.4047 2.08418 21.3039 2.04563 21.0322 2.02344C20.7489 2.00029 20.3764 2 19.7998 2H16C15.4477 2 15 1.55229 15 1C15 0.447716 15.4477 2.41411e-08 16 0H19.7998ZM9.98145 5.25391C10.3936 4.88632 11.0259 4.92196 11.3936 5.33398L16.7461 11.3359L16.8057 11.4092C17.0831 11.7861 17.0633 12.3115 16.7461 12.667L11.3936 18.666C11.0259 19.0781 10.3935 19.1138 9.98145 18.7461C9.56937 18.3784 9.53366 17.7461 9.90137 17.334L13.7676 13.001H1C0.447716 13.001 3.53837e-07 12.5533 0 12.001C0.000113138 11.4488 0.447786 11.001 1 11.001H13.7686L9.90039 6.66602C9.53283 6.2539 9.56941 5.62154 9.98145 5.25391Z" fill="black"/>
</g>
<defs>
<clipPath id="clip0_1429_430">
<rect width="24" height="24" fill="white"/>
</clipPath>
</defs>
</svg>
