<svg width="24" height="24" viewBox="0 0 24 24" fill="none" xmlns="http://www.w3.org/2000/svg">
<g clip-path="url(#clip0_1351_458)">
<path d="M11.9951 0C16.4151 1.54624e-06 19.9979 3.58302 19.998 8.00293V18C19.998 18.5522 20.4458 18.9999 20.998 19H23C23.5523 19 24 19.4477 24 20C24 20.5523 23.5523 21 23 21H15C15 22.6569 13.6569 24 12 24C10.3431 24 9 22.6569 9 21H1C0.447715 21 0 20.5523 0 20C0 19.4477 0.447715 19 1 19H2.99219C3.54439 18.9999 3.99219 18.5522 3.99219 18V8.00293C3.99228 3.58302 7.57518 0 11.9951 0ZM11.9951 2C8.67975 2 5.99228 4.68759 5.99219 8.00293V18C5.99219 18.351 5.92914 18.6869 5.81836 19H18.1719C18.0611 18.6869 17.998 18.351 17.998 18V8.00293C17.9979 4.68759 15.3105 2 11.9951 2Z" fill="black"/>
</g>
<defs>
<clipPath id="clip0_1351_458">
<rect width="24" height="24" fill="white"/>
</clipPath>
</defs>
</svg>
