<svg width="24" height="24" viewBox="0 0 24 24" fill="none" xmlns="http://www.w3.org/2000/svg">
<g clip-path="url(#clip0_1347_405)">
<path d="M0 3C0 2.06812 0 1.60218 0.152241 1.23463C0.355229 0.744577 0.744577 0.355229 1.23463 0.152241C1.60218 0 2.06812 0 3 0H21C21.9319 0 22.3978 0 22.7654 0.152241C23.2554 0.355229 23.6448 0.744577 23.8478 1.23463C24 1.60218 24 2.06812 24 3C24 3.93188 24 4.39782 23.8478 4.76537C23.6448 5.25542 23.2554 5.64477 22.7654 5.84776C22.3978 6 21.9319 6 21 6H3C2.06812 6 1.60218 6 1.23463 5.84776C0.744577 5.64477 0.355229 5.25542 0.152241 4.76537C0 4.39782 0 3.93188 0 3Z" fill="black"/>
<path d="M0 12C0 11.0681 0 10.6022 0.152241 10.2346C0.355229 9.74458 0.744577 9.35523 1.23463 9.15224C1.60218 9 2.06812 9 3 9H21C21.9319 9 22.3978 9 22.7654 9.15224C23.2554 9.35523 23.6448 9.74458 23.8478 10.2346C24 10.6022 24 11.0681 24 12C24 12.9319 24 13.3978 23.8478 13.7654C23.6448 14.2554 23.2554 14.6448 22.7654 14.8478C22.3978 15 21.9319 15 21 15H3C2.06812 15 1.60218 15 1.23463 14.8478C0.744577 14.6448 0.355229 14.2554 0.152241 13.7654C0 13.3978 0 12.9319 0 12Z" fill="black"/>
<path d="M0 21C0 20.0681 0 19.6022 0.152241 19.2346C0.355229 18.7446 0.744577 18.3552 1.23463 18.1522C1.60218 18 2.06812 18 3 18H21C21.9319 18 22.3978 18 22.7654 18.1522C23.2554 18.3552 23.6448 18.7446 23.8478 19.2346C24 19.6022 24 20.0681 24 21C24 21.9319 24 22.3978 23.8478 22.7654C23.6448 23.2554 23.2554 23.6448 22.7654 23.8478C22.3978 24 21.9319 24 21 24H3C2.06812 24 1.60218 24 1.23463 23.8478C0.744577 23.6448 0.355229 23.2554 0.152241 22.7654C0 22.3978 0 21.9319 0 21Z" fill="black"/>
</g>
<defs>
<clipPath id="clip0_1347_405">
<rect width="24" height="24" fill="white"/>
</clipPath>
</defs>
</svg>
