<svg width="25" height="24" viewBox="0 0 25 24" fill="none" xmlns="http://www.w3.org/2000/svg">
<path d="M0.0896678 17.1759C-0.138309 17.6786 0.0834082 18.2712 0.584956 18.4999C1.08676 18.7286 1.6786 18.5063 1.90673 18.0034L2.67293 16.3145C4.11203 20.2298 8.02486 23 12.5615 23C17.4595 23 21.625 19.7787 22.7452 15.3666C22.8811 14.8317 22.4985 14.322 21.9534 14.2422C21.408 14.1624 20.9076 14.5439 20.7564 15.075C19.7935 18.4578 16.5192 21 12.5615 21C8.72591 21 5.5407 18.618 4.46722 15.3926L6.66732 17.1564C7.09773 17.5015 7.72609 17.4313 8.07043 17C8.41477 16.5687 8.34524 15.9391 7.9148 15.5941L3.7036 12.2187C3.19556 11.8115 2.44076 11.9924 2.17158 12.5858L0.0896678 17.1759ZM12.4718 1C7.57388 1 3.40838 4.22129 2.28812 8.63335C2.15229 9.16832 2.53485 9.67796 3.07998 9.75776C3.62538 9.8376 4.12573 9.45611 4.27691 8.92501C5.23984 5.54218 8.51418 3 12.4718 3C16.3072 3 19.4934 5.38128 20.5671 8.60645L18.366 6.84305C17.9355 6.49823 17.3073 6.56871 16.963 6.99988C16.6187 7.43115 16.6881 8.06094 17.1185 8.40594L21.3292 11.7811C21.8253 12.1787 22.5611 12.0168 22.8453 11.4474L24.8944 7.34172C25.1409 6.84774 24.9411 6.24699 24.448 5.99999C23.955 5.753 23.3555 5.95318 23.109 6.44716L22.415 7.83789C21.0225 3.84224 17.0671 1 12.4718 1Z" fill="black"/>
</svg>
